#!OML:ASF I:\Actors\actors\Patient Classification 2\Patient 1\Session 1\actor1.ASF
:FULLY-SPECIFIED
:DEGREES
463
root -1.46103 17.7522 7.15157 -5.44736 3.48272 -7.17825
lowerback 3.09536 0.285608 3.09269
upperback -4.68293 0.691388 1.8665
thorax -6.60275 0.241651 0.153264
lowerneck -27.3357 -2.82063 -1.40081
upperneck 14.9155 -3.53341 1.13362
head 9.15643 -1.5918 0.0790634
rclavicle -6.65929e-015 -7.55382e-015
rhumerus 14.5563 -31.5092 -12.0586
rradius 81.6883
rwrist 7.26472
rhand -48.8457 -44.1745
rfingers 7.12502
rthumb -21.4808 -73.0035
lclavicle -6.65929e-015 -7.55382e-015
lhumerus 18.8511 26.2629 30.0393
lradius 81.6188
lwrist -1.54661
lhand -35.1755 -59.6929
lfingers 7.12502
lthumb -8.31417 -29.8765
rfemur 20.592 -4.33454 24.0329
rtibia 2.8625e-014
rfoot -20.5031 -7.66481
rtoes 5.9699
lfemur 31.2919 -3.66422 -7.74667
ltibia -28.0928
lfoot 2.01385 14.0246
ltoes -16.7988
464
root -1.4494 17.7641 7.16425 -5.18285 3.2221 -6.90947
lowerback 2.8134 0.378737 2.88213
upperback -4.53663 0.780854 1.79706
thorax -6.283 0.298405 0.19189
lowerneck -27.9701 -2.8461 -1.31718
upperneck 14.8908 -3.56475 1.0296
head 9.24661 -1.60956 0.0178423
rclavicle -1.09332e-015 -1.11319e-014
rhumerus 13.3335 -31.6026 -12.2853
rradius 83.4337
rwrist 7.59908
rhand -48.8761 -44.7389
rfingers 7.12502
rthumb -21.51 -73.5645
lclavicle -1.09332e-015 -1.11319e-014
lhumerus 17.4434 26.3339 30.6104
lradius 83.3584
lwrist -2.04682
lhand -35.705 -60.0019
lfingers 7.12502
lthumb -8.82513 -30.2064
rfemur 20.3435 -4.0234 23.7694
rtibia -4.13472e-014
rfoot -20.4628 -7.81629
rtoes 5.32992
lfemur 30.9797 -3.71524 -8.16456
ltibia -27.7131
lfoot 1.68743 14.3448
ltoes -16.4434
465
root -1.43853 17.7735 7.17683 -4.91533 3.00104 -6.71811
lowerback 2.16197 0.359328 2.4942
upperback -4.21076 0.699899 1.88806
thorax -5.56935 0.286486 0.512157
lowerneck -28.4406 -2.71328 -0.998637
upperneck 14.5468 -3.42071 0.694228
head 9.18585 -1.56336 -0.129882
rclavicle -1.45113e-014 -2.34566e-014
rhumerus 12.6609 -31.8276 -12.8834
rradius 85.0535
rwrist 7.91253
rhand -49.0407 -45.2602
rfingers 7.12502
rthumb -21.6681 -74.0677
lclavicle -1.45113e-014 -2.34566e-014
lhumerus 15.7913 26.7726 31.0155
lradius 85.1574
lwrist -2.50343
lhand -36.5512 -60.0904
lfingers 7.12502
lthumb -9.64167 -30.331
rfemur 20.0874 -3.76176 23.5819
rtibia 3.81667e-014
rfoot -20.4312 -7.88279
rtoes 5.11623
lfemur 30.6579 -3.72678 -8.46727
ltibia -27.3647
lfoot 1.33036 14.5641
ltoes -15.9059
466
root -1.42742 17.7819 7.19068 -4.62767 2.81857 -6.54021
lowerback 1.94417 0.33641 2.40681
upperback -4.26297 0.651673 1.762
thorax -5.4987 0.263591 0.434771
lowerneck -28.6479 -2.61544 -0.674721
upperneck 14.474 -3.38871 0.592091
head 9.1851 -1.5409 -0.213487
rclavicle -6.4605e-015 -1.15295e-014
rhumerus 11.5735 -31.6234 -13.5132
rradius 86.6143
rwrist 8.03946
rhand -49.175 -45.2003
rfingers 7.12502
rthumb -21.7971 -73.9929
lclavicle -6.4605e-015 -1.15295e-014
lhumerus 14.0392 26.611 31.0464
lradius 86.8832
lwrist -2.76339
lhand -36.9825 -60.4408
lfingers 7.12502
lthumb -10.0578 -30.7011
rfemur 19.8233 -3.53787 23.3983
rtibia -6.36111e-015
rfoot -20.4542 -7.86255
rtoes 5.27172
lfemur 30.3239 -3.77156 -8.76361
ltibia -27.0595
lfoot 1.02391 14.8001
ltoes -15.6892
467
root -1.41572 17.7907 7.20356 -4.32556 2.63327 -6.36107
lowerback 1.74631 0.334398 2.32447
upperback -4.30877 0.633615 1.65267
thorax -5.43279 0.255817 0.369739
lowerneck -28.9297 -2.54473 -0.624273
upperneck 14.4404 -3.33876 0.726401
head 9.21965 -1.49669 -0.16914
rclavicle -2.28602e-015 -2.42517e-014
rhumerus 10.5037 -31.5648 -14.0975
rradius 88.0542
rwrist 8.32277
rhand -49.2713 -44.9105
rfingers 7.12502
rthumb -21.8895 -73.6923
lclavicle -2.28602e-015 -2.42517e-014
lhumerus 12.3137 26.4417 31.082
lradius 88.5823
lwrist -3.00879
lhand -36.9794 -60.9679
lfingers 7.12502
lthumb -10.0548 -31.2281
rfemur 19.5322 -3.3114 23.211
rtibia 6.04305e-014
rfoot -20.4881 -7.9014
rtoes 5.18457
lfemur 30.0036 -3.91521 -9.09451
ltibia -26.8097
lfoot 0.743276 15.1737
ltoes -15.4782
468
root -1.40391 17.7978 7.21342 -4.09306 2.46405 -6.25066
lowerback 1.69549 0.35053 2.34323
upperback -4.38716 0.650607 1.53464
thorax -5.48426 0.259786 0.236234
lowerneck -29.0923 -2.45733 -0.5903
upperneck 14.3625 -3.26186 0.866726
head 9.21968 -1.44116 -0.114007
rclavicle -3.97569e-016 -1.07344e-014
rhumerus 9.25147 -31.5353 -14.5664
rradius 89.4924
rwrist 8.70701
rhand -49.4966 -45.5179
rfingers 7.12502
rthumb -22.1059 -74.2742
lclavicle -3.97569e-016 -1.07344e-014
lhumerus 10.6021 26.1963 31.0895
lradius 90.2887
lwrist -3.30569
lhand -36.9555 -61.2976
lfingers 7.12502
lthumb -10.0317 -31.5567
rfemur 19.2992 -3.11446 23.0933
rtibia 9.54166e-015
rfoot -20.5243 -7.98462
rtoes 4.86764
lfemur 29.7564 -4.02813 -9.32988
ltibia -26.5958
lfoot 0.483678 15.4793
ltoes -15.1522
469
root -1.39182 17.8042 7.22251 -3.89688 2.2992 -6.15599
lowerback 1.66745 0.364721 2.36199
upperback -4.43926 0.664995 1.41633
thorax -5.5211 0.262602 0.102407
lowerneck -29.2438 -2.38105 -0.493547
upperneck 14.186 -3.21122 0.952719
head 9.18085 -1.40164 -0.0910741
rclavicle 6.4605e-015 -6.36111e-015
rhumerus 8.04339 -31.5541 -15.1311
rradius 90.8746
rwrist 8.9901
rhand -49.7779 -46.8142
rfingers 7.12502
rthumb -22.3759 -75.5383
lclavicle 6.4605e-015 -6.36111e-015
lhumerus 9.05467 26.0169 31.2531
lradius 91.8976
lwrist -3.62242
lhand -37.0159 -61.5105
lfingers 7.12502
lthumb -10.09 -31.7724
rfemur 19.1055 -2.92537 22.9867
rtibia -9.54166e-015
rfoot -20.564 -8.04262
rtoes 4.66012
lfemur 29.5509 -4.06354 -9.52335
ltibia -26.4092
lfoot 0.274658 15.6789
ltoes -14.9748
470
root -1.38043 17.8099 7.23131 -3.69583 2.12159 -6.04464
lowerback 1.5531 0.36599 2.22236
upperback -4.41867 0.654415 1.38796
thorax -5.43468 0.263489 0.152442
lowerneck -29.4723 -2.33018 -0.407646
upperneck 13.9272 -3.17052 0.956019
head 9.12329 -1.37782 -0.097129
rclavicle 4.07509e-015 -7.95139e-015
rhumerus 7.14086 -31.666 -15.774
rradius 92.0887
rwrist 9.17566
rhand -49.843 -47.0461
rfingers 7.12502
rthumb -22.4384 -75.7627
lclavicle 4.07509e-015 -7.95139e-015
lhumerus 7.54277 25.9667 31.4697
lradius 93.4525
lwrist -3.78762
lhand -37.1462 -61.7662
lfingers 7.12502
lthumb -10.2156 -32.0342
rfemur 18.9028 -2.72231 22.8615
rtibia -6.36111e-014
rfoot -20.592 -8.07322
rtoes 4.64118
lfemur 29.3562 -4.11783 -9.74263
ltibia -26.2515
lfoot 0.0900323 15.9062
ltoes -14.8665
471
root -1.37001 17.815 7.23783 -3.49703 1.96677 -5.97221
lowerback 2.04839 0.451443 2.46212
upperback -4.84601 0.794659 1.11451
thorax -6.16231 0.305997 -0.278539
lowerneck -29.416 -2.41814 -0.222432
upperneck 13.9974 -3.35905 0.932951
head 9.13684 -1.45719 -0.164154
rclavicle 1.07344e-014 -3.97569e-016
rhumerus 5.36953 -31.2906 -15.9754
rradius 93.3512
rwrist 9.25438
rhand -49.9312 -46.7608
rfingers 7.12502
rthumb -22.523 -75.4671
lclavicle 1.07344e-014 -3.97569e-016
lhumerus 6.00855 25.0927 31.2188
lradius 94.9867
lwrist -3.71001
lhand -37.2535 -62.1414
lfingers 7.12502
lthumb -10.3192 -32.4145
rfemur 18.6974 -2.54714 22.7773
rtibia -3.81667e-014
rfoot -20.5951 -8.09733
rtoes 4.64734
lfemur 29.157 -4.19727 -9.91632
ltibia -26.1075
lfoot -0.0960556 16.1476
ltoes -14.5976
472
root -1.36081 17.8201 7.24435 -3.31174 1.81932 -5.91982
lowerback 2.1925 0.501009 2.52351
upperback -5.0025 0.86589 0.980085
thorax -6.40717 0.330823 -0.459598
lowerneck -29.5124 -2.42795 0.0048645
upperneck 13.8966 -3.41701 0.73324
head 9.10816 -1.49582 -0.27928
rclavicle 1.98785e-016 -3.97569e-016
rhumerus 3.98921 -31.1786 -16.2175
rradius 94.5032
rwrist 9.39996
rhand -50.0242 -47.1078
rfingers 7.12502
rthumb -22.6124 -75.8033
lclavicle 1.98785e-016 -3.97569e-016
lhumerus 4.58317 24.6233 31.0796
lradius 96.4327
lwrist -3.84792
lhand -37.3916 -62.5109
lfingers 7.12502
lthumb -10.4525 -32.7908
rfemur 18.5118 -2.38306 22.7146
rtibia -2.22639e-014
rfoot -20.605 -8.11405
rtoes 4.68111
lfemur 28.971 -4.24923 -10.0528
ltibia -25.9705
lfoot -0.264813 16.3408
ltoes -14.2563
473
root -1.35216 17.8246 7.25175 -3.15088 1.65135 -5.85086
lowerback 2.17972 0.548286 2.44418
upperback -5.0108 0.920417 0.907312
thorax -6.40676 0.359589 -0.495025
lowerneck -29.6938 -2.43542 0.125337
upperneck 13.7098 -3.45563 0.663429
head 9.06657 -1.51602 -0.328901
rclavicle -5.76476e-015 -9.93923e-015
rhumerus 2.80696 -31.203 -16.4307
rradius 95.5344
rwrist 9.49125
rhand -50.0051 -47.5088
rfingers 7.12502
rthumb -22.594 -76.2066
lclavicle -5.76476e-015 -9.93923e-015
lhumerus 3.27287 24.3526 31.0854
lradius 97.8047
lwrist -4.11435
lhand -37.585 -62.7549
lfingers 7.12502
lthumb -10.6389 -33.0442
rfemur 18.3522 -2.19921 22.6345
rtibia 3.18055e-014
rfoot -20.6391 -8.13453
rtoes 4.68024
lfemur 28.8202 -4.26912 -10.2018
ltibia -25.8519
lfoot -0.378809 16.4991
ltoes -14.1586
